<svg xmlns="http://www.w3.org/2000/svg" width="468.01165771484375" height="483.5206604003906" viewBox="-216.9945831298828 -265.0846862792969 468.01165771484375 483.5206604003906"><title>Neo4j Graph Visualization</title><desc>Created using Neo4j (http://www.neo4j.com/)</desc><g class="layer relationships"><g class="relationship" transform="translate(52.888619636814376 189.43596477767545) rotate(336.57307958564365)"><path class="b-outline" fill="#A5ABB6" stroke="none" d="M 25 0.5 L 43.92946524839104 0.5 L 43.92946524839104 -0.5 L 25 -0.5 Z M 91.71071524839104 0.5 L 110.64018049678208 0.5 L 110.64018049678208 3.5 L 117.64018049678208 0 L 110.64018049678208 -3.5 L 110.64018049678208 -0.5 L 91.71071524839104 -0.5 Z"/><text text-anchor="middle" pointer-events="none" font-size="8px" fill="#000000" x="67.82009024839104" y="3" font-family="Helvetica Neue, Helvetica, Arial, sans-serif">TRIGGERS</text></g><g class="relationship" transform="translate(183.7706740064359 132.7252168004004) rotate(285.51667157282264)"><path class="b-outline" fill="#A5ABB6" stroke="none" d="M 25 0.5 L 43.05184310208027 0.5 L 43.05184310208027 -0.5 L 25 -0.5 Z M 92.91512435208027 0.5 L 110.96696745416054 0.5 L 110.96696745416054 3.5 L 117.96696745416054 0 L 110.96696745416054 -3.5 L 110.96696745416054 -0.5 L 92.91512435208027 -0.5 Z"/><text text-anchor="middle" pointer-events="none" font-size="8px" fill="#000000" x="67.98348372708027" y="3" font-family="Helvetica Neue, Helvetica, Arial, sans-serif">FLOWS_TO</text></g><g class="relationship" transform="translate(-11.157598852259431 -95.89969558339075) rotate(195.01581602745074)"><path class="b-outline" fill="#A5ABB6" stroke="none" d="M 25 0.5 L 43.97863912789771 0.5 L 43.97863912789771 -0.5 L 25 -0.5 Z M 93.84192037789771 0.5 L 112.82055950579542 0.5 L 112.82055950579542 3.5 L 119.82055950579542 0 L 112.82055950579542 -3.5 L 112.82055950579542 -0.5 L 93.84192037789771 -0.5 Z"/><text text-anchor="middle" pointer-events="none" font-size="8px" fill="#000000" x="68.91027975289771" y="3" transform="rotate(180 68.91027975289771 0)" font-family="Helvetica Neue, Helvetica, Arial, sans-serif">FLOWS_TO</text></g><g class="relationship" transform="translate(-49.88258710308548 -236.08468286816702) rotate(494.57454352202956)"><path class="b-outline" fill="#A5ABB6" stroke="none" d="M 25 0.5 L 43.776185287927504 0.5 L 43.776185287927504 -0.5 L 25 -0.5 Z M 93.3464977879275 0.5 L 112.12268307585501 0.5 L 112.12268307585501 3.5 L 119.12268307585501 0 L 112.12268307585501 -3.5 L 112.12268307585501 -0.5 L 93.3464977879275 -0.5 Z"/><text text-anchor="middle" pointer-events="none" font-size="8px" fill="#000000" x="68.5613415379275" y="3" transform="rotate(180 68.5613415379275 0)" font-family="Helvetica Neue, Helvetica, Arial, sans-serif">ACCESSES</text></g><g class="relationship" transform="translate(-151.03316544204006 -133.42062743162023) rotate(464.6739358430724)"><path class="b-outline" fill="#A5ABB6" stroke="none" d="M 25 0.5 L 44.522972897669646 0.5 L 44.522972897669646 -0.5 L 25 -0.5 Z M 94.38625414766965 0.5 L 113.90922704533929 0.5 L 113.90922704533929 3.5 L 120.90922704533929 0 L 113.90922704533929 -3.5 L 113.90922704533929 -0.5 L 94.38625414766965 -0.5 Z"/><text text-anchor="middle" pointer-events="none" font-size="8px" fill="#000000" x="69.45461352266965" y="3" transform="rotate(180 69.45461352266965 0)" font-family="Helvetica Neue, Helvetica, Arial, sans-serif">FLOWS_TO</text></g><g class="relationship" transform="translate(-187.99458487473694 7.729491273567659) rotate(440.46685966120054)"><path class="b-outline" fill="#A5ABB6" stroke="none" d="M 25 0.5 L 42.98211855180277 0.5 L 42.98211855180277 -0.5 L 25 -0.5 Z M 92.84539980180277 0.5 L 110.82751835360554 0.5 L 110.82751835360554 3.5 L 117.82751835360554 0 L 110.82751835360554 -3.5 L 110.82751835360554 -0.5 L 92.84539980180277 -0.5 Z"/><text text-anchor="middle" pointer-events="none" font-size="8px" fill="#000000" x="67.91375917680277" y="3" font-family="Helvetica Neue, Helvetica, Arial, sans-serif">FLOWS_TO</text></g></g><g class="layer nodes"><g class="node" aria-label="graph-node0" transform="translate(52.888619636814376,189.43596477767545)"><circle class="b-outline" cx="0" cy="0" r="25" fill="#C990C0" stroke="#b261a5" stroke-width="2px"/><text class="caption" text-anchor="middle" pointer-events="none" x="0" y="-5" font-size="10px" fill="#FFFFFF" font-family="Helvetica Neue, Helvetica, Arial, sans-serif"> User</text><text class="caption" text-anchor="middle" pointer-events="none" x="0" y="5" font-size="10px" fill="#FFFFFF" font-family="Helvetica Neue, Helvetica, Arial, sans-serif"> requesting</text><text class="caption" text-anchor="middle" pointer-events="none" x="0" y="15" font-size="10px" fill="#FFFFFF" font-family="Helvetica Neue, Helvetica, Arial, sans-serif"> inf</text></g><g class="node" aria-label="graph-node1" transform="translate(183.7706740064359,132.7252168004004)"><circle class="b-outline" cx="0" cy="0" r="25" fill="#F79767" stroke="#f36924" stroke-width="2px"/><text class="caption" text-anchor="middle" pointer-events="none" x="0" y="0" font-size="10px" fill="#FFFFFF" font-family="Helvetica Neue, Helvetica, Arial, sans-serif"> AI</text><text class="caption" text-anchor="middle" pointer-events="none" x="0" y="10" font-size="10px" fill="#FFFFFF" font-family="Helvetica Neue, Helvetica, Arial, sans-serif"> develo…</text></g><g class="node" aria-label="graph-node2" transform="translate(222.01701929057833,-5.030983987241646)"><circle class="b-outline" cx="0" cy="0" r="25" fill="#57C7E3" stroke="#23b3d7" stroke-width="2px"/><text class="caption" text-anchor="middle" pointer-events="none" x="0" y="-5" font-size="10px" fill="#2A2C34" font-family="Helvetica Neue, Helvetica, Arial, sans-serif"> AI</text><text class="caption" text-anchor="middle" pointer-events="none" x="0" y="5" font-size="10px" fill="#2A2C34" font-family="Helvetica Neue, Helvetica, Arial, sans-serif"> company</text><text class="caption" text-anchor="middle" pointer-events="none" x="0" y="15" font-size="10px" fill="#2A2C34" font-family="Helvetica Neue, Helvetica, Arial, sans-serif"> eve…</text></g><g class="node" aria-label="graph-node3" transform="translate(-11.157598852259431,-95.89969558339075)"><circle class="b-outline" cx="0" cy="0" r="25" fill="#C990C0" stroke="#b261a5" stroke-width="2px"/><text class="caption" text-anchor="middle" pointer-events="none" x="0" y="-5" font-size="10px" fill="#FFFFFF" font-family="Helvetica Neue, Helvetica, Arial, sans-serif"> System</text><text class="caption" text-anchor="middle" pointer-events="none" x="0" y="5" font-size="10px" fill="#FFFFFF" font-family="Helvetica Neue, Helvetica, Arial, sans-serif"> providing</text><text class="caption" text-anchor="middle" pointer-events="none" x="0" y="15" font-size="10px" fill="#FFFFFF" font-family="Helvetica Neue, Helvetica, Arial, sans-serif"> ac</text></g><g class="node" aria-label="graph-node4" transform="translate(-49.88258710308548,-236.08468286816702)"><circle class="b-outline" cx="0" cy="0" r="25" fill="#C990C0" stroke="#b261a5" stroke-width="2px"/><text class="caption" text-anchor="middle" pointer-events="none" x="0" y="-5" font-size="10px" fill="#FFFFFF" font-family="Helvetica Neue, Helvetica, Arial, sans-serif"> User</text><text class="caption" text-anchor="middle" pointer-events="none" x="0" y="5" font-size="10px" fill="#FFFFFF" font-family="Helvetica Neue, Helvetica, Arial, sans-serif"> interacting</text><text class="caption" text-anchor="middle" pointer-events="none" x="0" y="15" font-size="10px" fill="#FFFFFF" font-family="Helvetica Neue, Helvetica, Arial, sans-serif"> wi</text></g><g class="node selected" aria-label="graph-node5" transform="translate(-151.03316544204006,-133.42062743162023)"><circle class="b-outline" cx="0" cy="0" r="25" fill="#57C7E3" stroke="#23b3d7" stroke-width="2px"/><text class="caption" text-anchor="middle" pointer-events="none" x="0" y="-5" font-size="10px" fill="#2A2C34" font-family="Helvetica Neue, Helvetica, Arial, sans-serif"> Gmail</text><text class="caption" text-anchor="middle" pointer-events="none" x="0" y="5" font-size="10px" fill="#2A2C34" font-family="Helvetica Neue, Helvetica, Arial, sans-serif"> login form</text><text class="caption" text-anchor="middle" pointer-events="none" x="0" y="15" font-size="10px" fill="#2A2C34" font-family="Helvetica Neue, Helvetica, Arial, sans-serif"> im</text></g><g class="node" aria-label="graph-node6" transform="translate(-187.99458487473694,7.729491273567659)"><circle class="b-outline" cx="0" cy="0" r="25" fill="#F79767" stroke="#f36924" stroke-width="2px"/><text class="caption" text-anchor="middle" pointer-events="none" x="0" y="0" font-size="10px" fill="#FFFFFF" font-family="Helvetica Neue, Helvetica, Arial, sans-serif"> Extract</text><text class="caption" text-anchor="middle" pointer-events="none" x="0" y="10" font-size="10px" fill="#FFFFFF" font-family="Helvetica Neue, Helvetica, Arial, sans-serif"> crede…</text></g><g class="node" aria-label="graph-node7" transform="translate(-164.33976926604623,148.5845575564968)"><circle class="b-outline" cx="0" cy="0" r="25" fill="#F79767" stroke="#f36924" stroke-width="2px"/><text class="caption" text-anchor="middle" pointer-events="none" x="0" y="0" font-size="10px" fill="#FFFFFF" font-family="Helvetica Neue, Helvetica, Arial, sans-serif"> Send</text><text class="caption" text-anchor="middle" pointer-events="none" x="0" y="10" font-size="10px" fill="#FFFFFF" font-family="Helvetica Neue, Helvetica, Arial, sans-serif"> crede…</text></g></g></svg>
