<svg width="100%" viewBox="0 0 420 420" xmlns="http://www.w3.org/2000/svg" role="img" font-family="-apple-system, 'Segoe UI', sans-serif">
  <title>Residual-stream surface - geometric</title>
  <defs>
    <marker id="arrow-amber" markerWidth="8" markerHeight="8" refX="6" refY="3" orient="auto">
      <path d="M 0 0 L 6 3 L 0 6 Z" fill="#FFC97A"/>
    </marker>
  </defs>
  <rect x="0" y="0" width="420" height="420" fill="#0B0A20"/>
  <rect x="20" y="20" width="380" height="380" fill="#0F0E26" stroke="#26215C" stroke-width="0.6" rx="6"/>
  <text x="210" y="56" text-anchor="middle" font-size="17" fill="#AFA9EC" font-weight="600">Residual-stream surface</text>
  <text x="210" y="76" text-anchor="middle" font-size="12" fill="#AFA9EC" opacity="0.85" font-style="italic">geometric</text>
  <g transform="translate(60, 100)">
    <line x1="160" y1="200" x2="40" y2="240" stroke="#7F77DD" stroke-width="0.6" opacity="0.55"/>
    <line x1="160" y1="200" x2="280" y2="225" stroke="#7F77DD" stroke-width="0.6" opacity="0.55"/>
    <line x1="160" y1="200" x2="160" y2="40" stroke="#7F77DD" stroke-width="0.6" opacity="0.55"/>
    <polygon points="40,240 280,225 280,160 40,175" fill="#AFA9EC" fill-opacity="0.07" stroke="#AFA9EC" stroke-width="0.4" stroke-opacity="0.4"/>
    <text x="280" y="248" text-anchor="end" font-size="10" fill="#AFA9EC" opacity="0.65" font-style="italic">subspace</text>
    <path d="M 60 230 Q 110 205, 160 180 Q 210 155, 245 115 Q 270 80, 280 55" fill="none" stroke="#AFA9EC" stroke-width="1.5" opacity="0.9"/>
    <g fill="#EEEDFE">
      <circle cx="60" cy="230" r="2.6" opacity="0.85"/>
      <circle cx="110" cy="205" r="2.6" opacity="0.85"/>
      <circle cx="160" cy="180" r="2.6" opacity="0.85"/>
      <circle cx="210" cy="155" r="2.6" opacity="0.85"/>
      <circle cx="245" cy="115" r="2.6" opacity="0.85"/>
      <circle cx="280" cy="55" r="2.6" opacity="0.85"/>
    </g>
    <line x1="160" y1="200" x2="252" y2="105" stroke="#FFC97A" stroke-width="1.4" opacity="0.88" marker-end="url(#arrow-amber)"/>
    <text x="258" y="100" font-size="10" fill="#FFC97A" opacity="0.9" font-style="italic">principal direction</text>
  </g>
</svg>
